<?xml version="1.0" encoding="UTF-8" ?>
<!DOCTYPE svg PUBLIC "-//W3C//DTD SVG 1.1//EN" "http://www.w3.org/Graphics/SVG/1.1/DTD/svg11.dtd">
<svg width="300pt" height="300pt" viewBox="0 0 300 300" version="1.1" xmlns="http://www.w3.org/2000/svg">
<path fill="#ffffff" d=" M 0.00 0.00 L 300.00 0.00 L 300.00 300.00 L 0.00 300.00 L 0.00 0.00 Z" />
<path fill="#5071ae" d=" M 119.13 28.13 C 131.17 23.70 144.28 23.56 156.94 24.31 C 156.51 24.75 155.64 25.63 155.21 26.07 C 157.61 27.11 160.01 28.16 162.41 29.22 C 155.64 36.19 149.23 43.49 142.34 50.33 C 139.51 53.18 136.84 56.65 132.75 57.67 C 124.56 59.90 116.02 60.20 107.68 61.55 L 106.81 61.68 C 106.79 54.78 106.37 47.86 106.85 40.98 C 107.55 34.52 113.51 30.29 119.13 28.13 Z" />
<path fill="#4e6ca5" d=" M 155.21 26.07 C 155.64 25.63 156.51 24.75 156.94 24.31 C 165.53 25.39 174.52 27.02 181.59 32.38 C 182.97 33.56 184.78 34.78 184.97 36.76 C 184.87 40.85 185.40 45.15 183.99 49.07 C 181.33 53.29 176.98 56.03 173.50 59.51 C 165.12 67.80 157.66 77.01 148.80 84.81 C 143.35 89.96 138.16 95.37 132.83 100.64 C 134.77 102.10 136.73 103.52 138.72 104.91 C 135.45 104.99 132.18 105.26 128.92 105.59 C 128.50 105.63 127.65 105.71 127.22 105.75 C 123.17 106.04 119.00 105.88 115.12 107.23 C 111.93 108.32 109.25 110.49 106.96 112.91 C 101.83 118.28 100.81 126.03 100.99 133.15 C 100.97 138.43 100.96 143.72 100.96 149.00 C 91.31 143.99 81.78 138.76 72.28 133.48 C 71.10 130.78 69.67 128.19 68.17 125.66 C 72.86 120.19 78.28 115.43 83.32 110.31 C 96.00 96.81 110.21 84.78 122.17 70.61 C 121.58 69.66 121.00 68.71 120.42 67.75 C 129.57 67.97 138.72 67.84 147.87 67.88 C 147.86 65.87 147.86 63.86 147.86 61.85 C 134.47 61.38 121.07 61.94 107.68 61.55 C 116.02 60.20 124.56 59.90 132.75 57.67 C 136.84 56.65 139.51 53.18 142.34 50.33 C 149.23 43.49 155.64 36.19 162.41 29.22 C 160.01 28.16 157.61 27.11 155.21 26.07 Z" />
<path fill="#ffffff" d=" M 121.31 37.29 C 126.63 34.68 133.07 40.14 131.70 45.78 C 130.83 51.35 123.17 53.86 119.18 49.86 C 115.01 46.53 116.31 39.07 121.31 37.29 Z" />
<path fill="#4c689d" d=" M 184.97 36.76 C 186.65 38.45 188.01 40.53 188.11 42.99 C 188.75 49.60 188.20 56.25 188.35 62.88 C 187.99 72.12 189.28 81.48 187.55 90.62 C 185.85 98.65 178.20 103.38 170.82 105.48 C 156.86 105.96 142.89 105.70 128.92 105.59 C 132.18 105.26 135.45 104.99 138.72 104.91 C 136.73 103.52 134.77 102.10 132.83 100.64 C 138.16 95.37 143.35 89.96 148.80 84.81 C 157.66 77.01 165.12 67.80 173.50 59.51 C 176.98 56.03 181.33 53.29 183.99 49.07 C 185.40 45.15 184.87 40.85 184.97 36.76 Z" />
<path fill="#e9c88a" d=" M 188.35 62.88 C 194.03 63.63 199.60 65.01 205.10 66.61 C 201.47 66.59 197.84 66.78 194.22 66.97 C 193.81 76.56 195.38 86.42 192.81 95.80 C 191.02 101.96 186.38 107.09 180.39 109.40 C 177.24 108.00 174.09 106.57 170.82 105.48 C 178.20 103.38 185.85 98.65 187.55 90.62 C 189.28 81.48 187.99 72.12 188.35 62.88 Z" />
<path fill="#f3db35" d=" M 194.22 66.97 C 197.84 66.78 201.47 66.59 205.10 66.61 C 209.89 66.69 214.93 67.36 218.99 70.10 C 222.81 73.15 225.76 77.18 227.72 81.65 C 225.49 85.94 223.40 90.45 219.84 93.83 C 214.24 99.25 208.55 104.58 203.53 110.54 C 197.44 117.75 190.07 123.75 183.95 130.93 C 179.86 135.74 175.28 140.11 171.03 144.79 C 175.37 145.94 179.75 146.90 184.15 147.76 C 173.35 148.34 162.50 147.27 151.74 148.65 C 150.25 148.78 148.77 148.94 147.29 149.11 C 147.27 150.99 147.25 152.87 147.23 154.76 C 157.65 155.01 168.08 154.38 178.48 155.27 C 167.13 161.09 155.54 166.46 143.88 171.61 C 138.51 168.68 133.32 165.40 127.65 163.08 L 127.27 162.43 C 125.94 159.94 124.46 157.52 123.40 154.89 C 124.88 151.20 128.40 148.87 130.90 145.90 C 136.04 140.04 141.90 134.87 146.94 128.92 C 152.48 122.52 158.78 116.58 166.49 112.88 C 166.41 112.42 166.25 111.50 166.17 111.03 C 170.94 111.02 175.79 110.80 180.39 109.40 C 186.38 107.09 191.02 101.96 192.81 95.80 C 195.38 86.42 193.81 76.56 194.22 66.97 Z" />
<path fill="#5070ad" d=" M 70.90 77.05 C 75.35 71.20 82.60 67.71 89.96 67.90 C 100.11 67.92 110.27 67.77 120.42 67.75 C 121.00 68.71 121.58 69.66 122.17 70.61 C 110.21 84.78 96.00 96.81 83.32 110.31 C 78.28 115.43 72.86 120.19 68.17 125.66 C 69.67 128.19 71.10 130.78 72.28 133.48 C 68.93 131.98 65.38 130.10 64.14 126.38 C 61.83 109.93 60.87 91.29 70.90 77.05 Z" />
<path fill="#e9c889" d=" M 218.99 70.10 C 236.10 73.40 252.94 77.99 269.89 81.99 C 265.72 88.69 260.97 95.01 256.67 101.62 C 250.99 110.25 244.56 118.43 239.69 127.56 C 238.27 127.87 236.87 128.25 235.51 128.74 C 233.89 127.96 232.27 127.18 230.66 126.41 C 231.46 123.01 231.81 119.53 231.95 116.04 C 232.23 104.49 232.70 92.40 227.72 81.65 C 225.76 77.18 222.81 73.15 218.99 70.10 Z" />
<path fill="#eccf90" d=" M 46.61 82.64 C 54.66 80.56 62.83 79.00 70.90 77.05 C 60.87 91.29 61.83 109.93 64.14 126.38 C 61.72 126.26 59.29 126.05 56.94 125.42 C 55.51 120.06 51.43 116.16 48.28 111.80 C 42.07 103.44 35.36 95.42 29.49 86.81 C 35.04 84.83 40.91 84.07 46.61 82.64 Z" />
<path fill="#f2d52d" d=" M 219.84 93.83 C 223.40 90.45 225.49 85.94 227.72 81.65 C 232.70 92.40 232.23 104.49 231.95 116.04 C 231.81 119.53 231.46 123.01 230.66 126.41 C 230.13 128.27 229.51 130.11 228.89 131.95 C 216.57 137.50 204.70 144.00 192.14 149.00 C 178.67 148.75 165.20 148.94 151.74 148.65 C 162.50 147.27 173.35 148.34 184.15 147.76 C 179.75 146.90 175.37 145.94 171.03 144.79 C 175.28 140.11 179.86 135.74 183.95 130.93 C 190.07 123.75 197.44 117.75 203.53 110.54 C 208.55 104.58 214.24 99.25 219.84 93.83 Z" />
<path fill="#8a6737" d=" M 128.92 105.59 C 142.89 105.70 156.86 105.96 170.82 105.48 C 174.09 106.57 177.24 108.00 180.39 109.40 C 175.79 110.80 170.94 111.02 166.17 111.03 C 155.78 111.01 145.39 111.06 135.01 110.91 C 128.47 110.85 121.49 111.21 115.83 114.87 C 111.81 117.37 109.45 121.60 107.01 125.51 C 105.11 128.13 102.99 130.59 100.99 133.15 C 100.81 126.03 101.83 118.28 106.96 112.91 C 113.66 110.36 120.72 108.83 127.22 105.75 C 127.65 105.71 128.50 105.63 128.92 105.59 Z" />
<path fill="#f5d189" d=" M 115.12 107.23 C 119.00 105.88 123.17 106.04 127.22 105.75 C 120.72 108.83 113.66 110.36 106.96 112.91 C 109.25 110.49 111.93 108.32 115.12 107.23 Z" />
<path fill="#967348" d=" M 16.97 108.92 C 23.72 110.71 29.84 114.15 36.28 116.76 C 43.17 119.62 49.86 123.01 56.94 125.42 C 59.29 126.05 61.72 126.26 64.14 126.38 C 65.38 130.10 68.93 131.98 72.28 133.48 C 81.78 138.76 91.31 143.99 100.96 149.00 C 102.70 149.95 104.44 150.91 106.18 151.86 C 106.47 144.10 106.07 136.32 106.76 128.58 C 106.94 136.16 105.65 143.99 107.46 151.41 C 113.51 155.97 120.87 158.40 127.27 162.43 L 127.65 163.08 C 122.20 161.15 116.83 158.97 111.26 157.38 C 104.98 154.80 98.66 152.32 92.45 149.56 C 81.15 144.04 70.48 137.33 59.11 131.94 C 50.90 127.96 43.06 123.25 35.02 118.92 C 29.07 115.47 22.72 112.72 16.97 108.92 Z" />
<path fill="#f5e13f" d=" M 115.83 114.87 C 121.49 111.21 128.47 110.85 135.01 110.91 C 145.39 111.06 155.78 111.01 166.17 111.03 C 166.25 111.50 166.41 112.42 166.49 112.88 C 158.78 116.58 152.48 122.52 146.94 128.92 C 141.90 134.87 136.04 140.04 130.90 145.90 C 128.40 148.87 124.88 151.20 123.40 154.89 C 124.46 157.52 125.94 159.94 127.27 162.43 C 120.87 158.40 113.51 155.97 107.46 151.41 C 105.65 143.99 106.94 136.16 106.76 128.58 C 106.82 127.81 106.95 126.27 107.01 125.51 C 109.45 121.60 111.81 117.37 115.83 114.87 Z" />
<path fill="#c1a370" d=" M 239.69 127.56 C 256.08 124.68 271.93 119.28 288.27 116.15 C 281.74 120.65 274.23 123.41 267.28 127.18 C 261.89 129.80 256.87 133.25 251.10 135.02 C 232.44 140.92 213.97 147.43 195.85 154.84 C 186.43 158.38 177.15 162.31 167.58 165.45 C 165.04 166.30 162.76 167.72 160.47 169.08 C 155.10 170.56 149.52 172.62 143.88 171.61 C 155.54 166.46 167.13 161.09 178.48 155.27 C 183.22 153.61 187.68 151.29 192.14 149.00 C 204.70 144.00 216.57 137.50 228.89 131.95 C 231.09 130.87 233.26 129.72 235.51 128.74 C 236.87 128.25 238.27 127.87 239.69 127.56 Z" />
<path fill="#785930" d=" M 100.99 133.15 C 102.99 130.59 105.11 128.13 107.01 125.51 C 106.95 126.27 106.82 127.81 106.76 128.58 C 106.07 136.32 106.47 144.10 106.18 151.86 C 104.44 150.91 102.70 149.95 100.96 149.00 C 100.96 143.72 100.97 138.43 100.99 133.15 Z" />
<path fill="#8d6c3b" d=" M 228.89 131.95 C 229.51 130.11 230.13 128.27 230.66 126.41 C 232.27 127.18 233.89 127.96 235.51 128.74 C 233.26 129.72 231.09 130.87 228.89 131.95 Z" />
<path fill="#d0b47d" d=" M 59.11 131.94 C 70.48 137.33 81.15 144.04 92.45 149.56 C 98.66 152.32 104.98 154.80 111.26 157.38 C 103.82 155.96 96.98 152.60 89.96 149.88 C 81.91 146.26 74.47 141.42 66.58 137.47 C 64.67 136.50 62.64 135.82 60.63 135.11 C 60.12 134.06 59.61 133.00 59.11 131.94 Z" />
<path fill="#9c8860" d=" M 60.63 135.11 C 62.64 135.82 64.67 136.50 66.58 137.47 C 67.23 140.16 68.36 142.71 70.12 144.85 C 73.19 148.73 75.94 153.15 80.38 155.62 C 85.96 158.50 91.48 161.57 96.02 166.00 C 99.91 169.44 105.20 170.55 109.30 173.69 C 112.55 176.18 115.90 178.54 119.30 180.82 C 124.82 184.55 129.20 189.78 135.02 193.08 C 138.78 189.44 138.25 182.82 143.43 180.32 C 144.36 187.36 144.72 194.45 145.12 201.54 C 146.21 201.06 147.31 200.59 148.41 200.12 C 154.77 208.19 154.86 219.21 160.80 227.56 C 165.31 221.27 164.92 213.30 167.21 206.21 C 170.90 195.13 172.92 183.26 179.40 173.33 C 181.95 170.03 185.61 167.84 188.37 164.73 C 194.95 163.62 201.63 162.26 207.45 158.86 C 201.93 165.35 197.07 172.38 192.32 179.44 C 189.20 184.03 188.00 189.54 186.95 194.90 C 185.70 201.18 185.00 207.59 184.98 214.00 C 184.83 218.84 188.09 222.76 190.35 226.75 C 191.57 229.05 193.85 230.41 196.20 231.33 C 186.97 237.86 177.68 244.38 167.71 249.74 C 159.87 254.40 152.59 259.93 144.82 264.72 C 138.18 259.85 131.95 254.43 125.02 249.96 C 113.92 242.53 103.83 233.77 93.00 225.98 C 86.80 221.18 80.83 216.07 74.32 211.67 C 72.99 210.70 71.59 209.78 70.55 208.49 C 69.31 204.48 69.40 200.21 68.75 196.09 C 67.17 185.39 65.53 174.69 64.27 163.95 C 63.35 154.30 62.18 144.68 60.63 135.11 Z" />
<path fill="#d0b47d" d=" M 195.85 154.84 C 213.97 147.43 232.44 140.92 251.10 135.02 C 246.36 138.42 240.84 140.50 236.05 143.84 C 232.22 146.17 228.22 148.19 224.20 150.17 C 218.55 152.92 212.75 155.44 207.45 158.86 C 201.63 162.26 194.95 163.62 188.37 164.73 C 179.05 166.02 169.83 168.04 160.47 169.08 C 162.76 167.72 165.04 166.30 167.58 165.45 C 177.15 162.31 186.43 158.38 195.85 154.84 Z" />
<path fill="#968259" d=" M 70.12 144.85 C 68.36 142.71 67.23 140.16 66.58 137.47 C 74.47 141.42 81.91 146.26 89.96 149.88 C 96.98 152.60 103.82 155.96 111.26 157.38 C 116.83 158.97 122.20 161.15 127.65 163.08 C 133.32 165.40 138.51 168.68 143.88 171.61 C 149.52 172.62 155.10 170.56 160.47 169.08 C 169.83 168.04 179.05 166.02 188.37 164.73 C 185.61 167.84 181.95 170.03 179.40 173.33 C 172.92 183.26 170.90 195.13 167.21 206.21 C 164.92 213.30 165.31 221.27 160.80 227.56 C 154.86 219.21 154.77 208.19 148.41 200.12 C 147.31 200.59 146.21 201.06 145.12 201.54 C 144.72 194.45 144.36 187.36 143.43 180.32 C 138.25 182.82 138.78 189.44 135.02 193.08 C 129.20 189.78 124.82 184.55 119.30 180.82 C 115.90 178.54 112.55 176.18 109.30 173.69 C 105.20 170.55 99.91 169.44 96.02 166.00 C 91.48 161.57 85.96 158.50 80.38 155.62 C 75.94 153.15 73.19 148.73 70.12 144.85 Z" />
<path fill="#a69a76" d=" M 224.20 150.17 C 228.22 148.19 232.22 146.17 236.05 143.84 C 233.96 163.52 230.47 183.06 228.70 202.79 C 228.40 205.35 228.56 208.06 227.55 210.47 C 224.62 213.88 220.41 215.77 216.71 218.19 C 211.84 214.86 210.08 208.79 211.20 203.15 C 212.71 195.01 214.41 186.91 215.62 178.71 C 217.18 168.85 220.70 159.48 224.20 150.17 Z" />
<path fill="#5f4427" d=" M 147.29 149.11 C 148.77 148.94 150.25 148.78 151.74 148.65 C 165.20 148.94 178.67 148.75 192.14 149.00 C 187.68 151.29 183.22 153.61 178.48 155.27 C 168.08 154.38 157.65 155.01 147.23 154.76 C 147.25 152.87 147.27 150.99 147.29 149.11 Z" />
<path fill="#9f906a" d=" M 207.45 158.86 C 212.75 155.44 218.55 152.92 224.20 150.17 C 220.70 159.48 217.18 168.85 215.62 178.71 C 214.41 186.91 212.71 195.01 211.20 203.15 C 210.08 208.79 211.84 214.86 216.71 218.19 C 211.61 221.62 206.34 224.78 201.36 228.38 C 199.70 229.45 198.14 230.81 196.20 231.33 C 193.85 230.41 191.57 229.05 190.35 226.75 C 188.09 222.76 184.83 218.84 184.98 214.00 C 185.00 207.59 185.70 201.18 186.95 194.90 C 188.00 189.54 189.20 184.03 192.32 179.44 C 197.07 172.38 201.93 165.35 207.45 158.86 Z" />
</svg>
