<svg version="1.1"
    baseProfile="full"
    width="200" height="200"
    xmlns="http://www.w3.org/2000/svg">
    <g>
        <rect  x="0" y="0" width="20" height="20" fill="green" />
        <rect  x="40" y="0" width="20" height="20" fill="green" />
        <rect  x="80" y="0" width="20" height="20" fill="green" />
        <rect  x="120" y="0" width="20" height="20" fill="green" />
        <rect  x="160" y="0" width="20" height="20" fill="green" />

        <rect  x="20" y="20" width="20" height="20" fill="green" />
        <rect  x="60" y="20" width="20" height="20" fill="green" />
        <rect  x="100" y="20" width="20" height="20" fill="green" />
        <rect  x="140" y="20" width="20" height="20" fill="green" />
        <rect  x="180" y="20" width="20" height="20" fill="green" />

        <rect  x="0" y="40" width="20" height="20" fill="green" />
        <rect  x="40" y="40" width="20" height="20" fill="green" />
        <rect  x="80" y="40" width="20" height="20" fill="green" />
        <rect  x="120" y="40" width="20" height="20" fill="green" />
        <rect  x="160" y="40" width="20" height="20" fill="green" />

        <rect  x="20" y="60" width="20" height="20" fill="green" />
        <rect  x="60" y="60" width="20" height="20" fill="green" />
        <rect  x="100" y="60" width="20" height="20" fill="green" />
        <rect  x="140" y="60" width="20" height="20" fill="green" />
        <rect  x="180" y="60" width="20" height="20" fill="green" />

        <rect  x="0" y="80" width="20" height="20" fill="green" />
        <rect  x="40" y="80" width="20" height="20" fill="green" />
        <rect  x="80" y="80" width="20" height="20" fill="green" />
        <rect  x="120" y="80" width="20" height="20" fill="green" />
        <rect  x="160" y="80" width="20" height="20" fill="green" />

        <rect  x="20" y="100" width="20" height="20" fill="green" />
        <rect  x="60" y="100" width="20" height="20" fill="green" />
        <rect  x="100" y="100" width="20" height="20" fill="green" />
        <rect  x="140" y="100" width="20" height="20" fill="green" />
        <rect  x="180" y="100" width="20" height="20" fill="green" />

        <rect  x="0" y="120" width="20" height="20" fill="green" />
        <rect  x="40" y="120" width="20" height="20" fill="green" />
        <rect  x="80" y="120" width="20" height="20" fill="green" />
        <rect  x="120" y="120" width="20" height="20" fill="green" />
        <rect  x="160" y="120" width="20" height="20" fill="green" />

        <rect  x="20" y="140" width="20" height="20" fill="green" />
        <rect  x="60" y="140" width="20" height="20" fill="green" />
        <rect  x="100" y="140" width="20" height="20" fill="green" />
        <rect  x="140" y="140" width="20" height="20" fill="green" />
        <rect  x="180" y="140" width="20" height="20" fill="green" />

        <rect  x="0" y="160" width="20" height="20" fill="green" />
        <rect  x="40" y="160" width="20" height="20" fill="green" />
        <rect  x="80" y="160" width="20" height="20" fill="green" />
        <rect  x="120" y="160" width="20" height="20" fill="green" />
        <rect  x="160" y="160" width="20" height="20" fill="green" />

        <rect  x="20" y="180" width="20" height="20" fill="green" />
        <rect  x="60" y="180" width="20" height="20" fill="green" />
        <rect  x="100" y="180" width="20" height="20" fill="green" />
        <rect  x="140" y="180" width="20" height="20" fill="green" />
        <rect  x="180" y="180" width="20" height="20" fill="green" />
    </g>
    <circle cx="50" cy="60" r="40" fill="#ffffff" />
</svg>